# xmcd
#
# Track frame offsets:
#        150
#        15310
#        31710
#        46575
#        62832
#        77732
#        97035
#        112952
#        128547
#        143692
#        160202
#        180540
#        196187
#        213987
#
# Disc length: 3071 seconds
#
# Revision: 1
# Processed by: cddbd v1.5.1PL0 Copyright (c) Steve Scherf et al.
# Submitted via: ExactAudioCopy v0.95a5
#
DISCID=a50bfd0e
DTITLE=YELLOWCARD - OCEAN AVENUE
DYEAR=2003
DGENRE=Rock
TTITLE0=Way Away
TTITLE1=Breathing
TTITLE2=Ocean Avenue
TTITLE3=Empty Apartment
TTITLE4=Life of A Salesman
TTITLE5=Only One
TTITLE6=Miles Apart
TTITLE7=Twentythree
TTITLE8=View from Heaven
TTITLE9=Inside Out
TTITLE10=Believe
TTITLE11=One Year,Six Months
TTITLE12=Back Home
TTITLE13=Avondale(acoustic)
EXTD=YEAR: 2003
EXTT0=
EXTT1=
EXTT2=
EXTT3=
EXTT4=
EXTT5=
EXTT6=
EXTT7=
EXTT8=
EXTT9=
EXTT10=
EXTT11=
EXTT12=
EXTT13=
PLAYORDER=
